<svg xmlns="http://www.w3.org/2000/svg" width="112" height="26" fill="none">
  <g filter="url(#a)">
    <path fill="#3470FF" d="M106.071 9.145h.5v-4.29h-.5a6.56 6.56 0 0 0-2.238.384 6.943 6.943 0 0 0-1.614.856l-.273-.705-.124-.319h-3.384v12.192h4.429v-7.67c.503-.163.97-.274 1.401-.334a13.116 13.116 0 0 1 1.803-.114Z"/>
    <path stroke="#000" d="M106.071 9.145h.5v-4.29h-.5a6.56 6.56 0 0 0-2.238.384 6.943 6.943 0 0 0-1.614.856l-.273-.705-.124-.319h-3.384v12.192h4.429v-7.67c.503-.163.97-.274 1.401-.334a13.116 13.116 0 0 1 1.803-.114Z"/>
    <path stroke="#000" stroke-opacity=".2" d="M106.071 9.145h.5v-4.29h-.5a6.56 6.56 0 0 0-2.238.384 6.943 6.943 0 0 0-1.614.856l-.273-.705-.124-.319h-3.384v12.192h4.429v-7.67c.503-.163.97-.274 1.401-.334a13.116 13.116 0 0 1 1.803-.114Z"/>
    <path fill="#3470FF" d="m97.405 17.134.414-.09-.021-.424-.118-2.325-.032-.615-.595.157c-.21.055-.416.082-.621.082a.669.669 0 0 1-.21-.028.28.28 0 0 1-.014-.041.907.907 0 0 1-.025-.24V9.868c0-1.698-.346-3.034-1.17-3.86-.79-.805-1.901-1.172-3.252-1.172-1.084 0-2.12.151-3.103.456h-.002c-.956.301-1.896.717-2.818 1.246l-.336.192.103.374.65 2.365.182.662.574-.377c.784-.514 1.46-.875 2.033-1.094.573-.22 1.09-.322 1.555-.322.462 0 .72.125.872.29.128.141.234.37.27.734l-.219.066c-1.472.42-2.59.787-3.339 1.1-.782.314-1.429.75-1.922 1.318-.521.602-.753 1.394-.753 2.318 0 .592.157 1.143.47 1.644.313.501.75.895 1.294 1.182a3.866 3.866 0 0 0 1.83.432c.71 0 1.376-.114 1.99-.348.45-.171.896-.401 1.336-.687.572.706 1.492 1.015 2.624 1.015.447 0 .843-.02 1.184-.062.348-.042.738-.11 1.17-.205ZM90.254 13.1l.002-.002c.248-.193.733-.439 1.498-.731v1.099c-.602.348-1.081.491-1.45.491-.207 0-.302-.035-.338-.054a.447.447 0 0 1-.03-.195c0-.241.09-.434.318-.608Zm-.283.812v-.002.002Z"/>
    <path stroke="#000" d="m97.405 17.134.414-.09-.021-.424-.118-2.325-.032-.615-.595.157c-.21.055-.416.082-.621.082a.669.669 0 0 1-.21-.028.28.28 0 0 1-.014-.041.907.907 0 0 1-.025-.24V9.868c0-1.698-.346-3.034-1.17-3.86-.79-.805-1.901-1.172-3.252-1.172-1.084 0-2.12.151-3.103.456h-.002c-.956.301-1.896.717-2.818 1.246l-.336.192.103.374.65 2.365.182.662.574-.377c.784-.514 1.46-.875 2.033-1.094.573-.22 1.09-.322 1.555-.322.462 0 .72.125.872.29.128.141.234.37.27.734l-.219.066c-1.472.42-2.59.787-3.339 1.1-.782.314-1.429.75-1.922 1.318-.521.602-.753 1.394-.753 2.318 0 .592.157 1.143.47 1.644.313.501.75.895 1.294 1.182a3.866 3.866 0 0 0 1.83.432c.71 0 1.376-.114 1.99-.348.45-.171.896-.401 1.336-.687.572.706 1.492 1.015 2.624 1.015.447 0 .843-.02 1.184-.062.348-.042.738-.11 1.17-.205ZM90.254 13.1l.002-.002c.248-.193.733-.439 1.498-.731v1.099c-.602.348-1.081.491-1.45.491-.207 0-.302-.035-.338-.054a.447.447 0 0 1-.03-.195c0-.241.09-.434.318-.608Zm-.283.812v-.002.002Z"/>
    <path stroke="#000" stroke-opacity=".2" d="m97.405 17.134.414-.09-.021-.424-.118-2.325-.032-.615-.595.157c-.21.055-.416.082-.621.082a.669.669 0 0 1-.21-.028.28.28 0 0 1-.014-.041.907.907 0 0 1-.025-.24V9.868c0-1.698-.346-3.034-1.17-3.86-.79-.805-1.901-1.172-3.252-1.172-1.084 0-2.12.151-3.103.456h-.002c-.956.301-1.896.717-2.818 1.246l-.336.192.103.374.65 2.365.182.662.574-.377c.784-.514 1.46-.875 2.033-1.094.573-.22 1.09-.322 1.555-.322.462 0 .72.125.872.29.128.141.234.37.27.734l-.219.066c-1.472.42-2.59.787-3.339 1.1-.782.314-1.429.75-1.922 1.318-.521.602-.753 1.394-.753 2.318 0 .592.157 1.143.47 1.644.313.501.75.895 1.294 1.182a3.866 3.866 0 0 0 1.83.432c.71 0 1.376-.114 1.99-.348.45-.171.896-.401 1.336-.687.572.706 1.492 1.015 2.624 1.015.447 0 .843-.02 1.184-.062.348-.042.738-.11 1.17-.205ZM90.254 13.1l.002-.002c.248-.193.733-.439 1.498-.731v1.099c-.602.348-1.081.491-1.45.491-.207 0-.302-.035-.338-.054a.447.447 0 0 1-.03-.195c0-.241.09-.434.318-.608Zm-.283.812v-.002.002Z"/>
    <path fill="#3470FF" d="m75.797 16.489.004.002c1.22.681 2.689 1.009 4.381 1.009.8 0 1.593-.09 2.377-.269.78-.177 1.464-.413 2.048-.712l.363-.186-.109-.392-.67-2.424-.152-.551-.526.224c-1.215.52-2.323.768-3.33.768-1.159 0-1.983-.364-2.552-1.041-.595-.721-.91-1.659-.91-2.853 0-.748.145-1.407.423-1.989a3.25 3.25 0 0 1 1.232-1.369l.002-.001c.54-.338 1.188-.515 1.962-.515.632 0 1.18.074 1.65.215l.01.003c.493.136.966.32 1.422.554l.542.278.167-.585.71-2.483.112-.396-.366-.187c-1.237-.633-2.658-.941-4.247-.941-1.693 0-3.172.328-4.417 1.007-1.23.67-2.176 1.575-2.817 2.716l-.002.004a7.499 7.499 0 0 0-.93 3.67c0 1.324.294 2.56.884 3.697l.004.007c.613 1.141 1.531 2.054 2.735 2.74Z"/>
    <path stroke="#000" d="m75.797 16.489.004.002c1.22.681 2.689 1.009 4.381 1.009.8 0 1.593-.09 2.377-.269.78-.177 1.464-.413 2.048-.712l.363-.186-.109-.392-.67-2.424-.152-.551-.526.224c-1.215.52-2.323.768-3.33.768-1.159 0-1.983-.364-2.552-1.041-.595-.721-.91-1.659-.91-2.853 0-.748.145-1.407.423-1.989a3.25 3.25 0 0 1 1.232-1.369l.002-.001c.54-.338 1.188-.515 1.962-.515.632 0 1.18.074 1.65.215l.01.003c.493.136.966.32 1.422.554l.542.278.167-.585.71-2.483.112-.396-.366-.187c-1.237-.633-2.658-.941-4.247-.941-1.693 0-3.172.328-4.417 1.007-1.23.67-2.176 1.575-2.817 2.716l-.002.004a7.499 7.499 0 0 0-.93 3.67c0 1.324.294 2.56.884 3.697l.004.007c.613 1.141 1.531 2.054 2.735 2.74Z"/>
    <path stroke="#000" stroke-opacity=".2" d="m75.797 16.489.004.002c1.22.681 2.689 1.009 4.381 1.009.8 0 1.593-.09 2.377-.269.78-.177 1.464-.413 2.048-.712l.363-.186-.109-.392-.67-2.424-.152-.551-.526.224c-1.215.52-2.323.768-3.33.768-1.159 0-1.983-.364-2.552-1.041-.595-.721-.91-1.659-.91-2.853 0-.748.145-1.407.423-1.989a3.25 3.25 0 0 1 1.232-1.369l.002-.001c.54-.338 1.188-.515 1.962-.515.632 0 1.18.074 1.65.215l.01.003c.493.136.966.32 1.422.554l.542.278.167-.585.71-2.483.112-.396-.366-.187c-1.237-.633-2.658-.941-4.247-.941-1.693 0-3.172.328-4.417 1.007-1.23.67-2.176 1.575-2.817 2.716l-.002.004a7.499 7.499 0 0 0-.93 3.67c0 1.324.294 2.56.884 3.697l.004.007c.613 1.141 1.531 2.054 2.735 2.74Z"/>
    <path fill="#101828" d="M66.784.5h-.5v16.764h4.428V.5h-3.928Z"/>
    <path stroke="#000" d="M66.784.5h-.5v16.764h4.428V.5h-3.928Z"/>
    <path stroke="#000" stroke-opacity=".2" d="M66.784.5h-.5v16.764h4.428V.5h-3.928Z"/>
    <path fill="#101828" d="m65.25 17.134.415-.09-.022-.424-.118-2.325-.031-.615-.596.157c-.209.055-.416.082-.621.082a.67.67 0 0 1-.209-.028.277.277 0 0 1-.014-.041.908.908 0 0 1-.026-.24V9.868c0-1.698-.346-3.034-1.17-3.86-.79-.805-1.901-1.172-3.251-1.172-1.085 0-2.12.151-3.104.456h-.002c-.956.301-1.895.717-2.818 1.246l-.336.192.103.374.65 2.365.182.662.575-.377c.783-.514 1.46-.875 2.032-1.094.573-.22 1.09-.322 1.555-.322.463 0 .721.125.873.29.128.141.233.37.27.734l-.22.066c-1.471.42-2.589.787-3.338 1.1-.782.314-1.43.75-1.923 1.318-.52.602-.753 1.394-.753 2.318 0 .592.158 1.143.47 1.644.313.501.75.895 1.294 1.182a3.866 3.866 0 0 0 1.83.432c.71 0 1.376-.114 1.99-.348.45-.171.896-.401 1.336-.687.572.706 1.493 1.015 2.625 1.015.446 0 .842-.02 1.184-.062.347-.042.738-.11 1.169-.205ZM58.1 13.1l.002-.002c.248-.193.733-.439 1.499-.731v1.099c-.602.348-1.082.491-1.451.491-.207 0-.302-.035-.338-.054a.449.449 0 0 1-.03-.195c0-.241.091-.434.318-.608Zm-.282.812-.001-.002v.002Z"/>
    <path stroke="#000" d="m65.25 17.134.415-.09-.022-.424-.118-2.325-.031-.615-.596.157c-.209.055-.416.082-.621.082a.67.67 0 0 1-.209-.028.277.277 0 0 1-.014-.041.908.908 0 0 1-.026-.24V9.868c0-1.698-.346-3.034-1.17-3.86-.79-.805-1.901-1.172-3.251-1.172-1.085 0-2.12.151-3.104.456h-.002c-.956.301-1.895.717-2.818 1.246l-.336.192.103.374.65 2.365.182.662.575-.377c.783-.514 1.46-.875 2.032-1.094.573-.22 1.09-.322 1.555-.322.463 0 .721.125.873.29.128.141.233.37.27.734l-.22.066c-1.471.42-2.589.787-3.338 1.1-.782.314-1.43.75-1.923 1.318-.52.602-.753 1.394-.753 2.318 0 .592.158 1.143.47 1.644.313.501.75.895 1.294 1.182a3.866 3.866 0 0 0 1.83.432c.71 0 1.376-.114 1.99-.348.45-.171.896-.401 1.336-.687.572.706 1.493 1.015 2.625 1.015.446 0 .842-.02 1.184-.062.347-.042.738-.11 1.169-.205ZM58.1 13.1l.002-.002c.248-.193.733-.439 1.499-.731v1.099c-.602.348-1.082.491-1.451.491-.207 0-.302-.035-.338-.054a.449.449 0 0 1-.03-.195c0-.241.091-.434.318-.608Zm-.282.812-.001-.002v.002Z"/>
    <path stroke="#000" stroke-opacity=".2" d="m65.25 17.134.415-.09-.022-.424-.118-2.325-.031-.615-.596.157c-.209.055-.416.082-.621.082a.67.67 0 0 1-.209-.028.277.277 0 0 1-.014-.041.908.908 0 0 1-.026-.24V9.868c0-1.698-.346-3.034-1.17-3.86-.79-.805-1.901-1.172-3.251-1.172-1.085 0-2.12.151-3.104.456h-.002c-.956.301-1.895.717-2.818 1.246l-.336.192.103.374.65 2.365.182.662.575-.377c.783-.514 1.46-.875 2.032-1.094.573-.22 1.09-.322 1.555-.322.463 0 .721.125.873.29.128.141.233.37.27.734l-.22.066c-1.471.42-2.589.787-3.338 1.1-.782.314-1.43.75-1.923 1.318-.52.602-.753 1.394-.753 2.318 0 .592.158 1.143.47 1.644.313.501.75.895 1.294 1.182a3.866 3.866 0 0 0 1.83.432c.71 0 1.376-.114 1.99-.348.45-.171.896-.401 1.336-.687.572.706 1.493 1.015 2.625 1.015.446 0 .842-.02 1.184-.062.347-.042.738-.11 1.169-.205ZM58.1 13.1l.002-.002c.248-.193.733-.439 1.499-.731v1.099c-.602.348-1.082.491-1.451.491-.207 0-.302-.035-.338-.054a.449.449 0 0 1-.03-.195c0-.241.091-.434.318-.608Zm-.282.812-.001-.002v.002Z"/>
    <path fill="#101828" d="m52.91 16.444.283-.197-.084-.335-.532-2.108-.156-.618-.563.299c-.59.313-1.12.454-1.598.454-.33 0-.502-.1-.61-.24-.117-.151-.23-.5-.23-1.172V8.495h3.152V5.071H49.42V2.195h-2.917l-.11.35-.874 2.789-1.89.759-.313.126v2.276h1.675v4.86c0 1.247.377 2.277 1.19 3.011l.004.004c.812.718 1.992 1.031 3.444 1.031.56 0 1.129-.078 1.706-.233l.008-.002a5.213 5.213 0 0 0 1.568-.722Z"/>
    <path stroke="#000" d="m52.91 16.444.283-.197-.084-.335-.532-2.108-.156-.618-.563.299c-.59.313-1.12.454-1.598.454-.33 0-.502-.1-.61-.24-.117-.151-.23-.5-.23-1.172V8.495h3.152V5.071H49.42V2.195h-2.917l-.11.35-.874 2.789-1.89.759-.313.126v2.276h1.675v4.86c0 1.247.377 2.277 1.19 3.011l.004.004c.812.718 1.992 1.031 3.444 1.031.56 0 1.129-.078 1.706-.233l.008-.002a5.213 5.213 0 0 0 1.568-.722Z"/>
    <path stroke="#000" stroke-opacity=".2" d="m52.91 16.444.283-.197-.084-.335-.532-2.108-.156-.618-.563.299c-.59.313-1.12.454-1.598.454-.33 0-.502-.1-.61-.24-.117-.151-.23-.5-.23-1.172V8.495h3.152V5.071H49.42V2.195h-2.917l-.11.35-.874 2.789-1.89.759-.313.126v2.276h1.675v4.86c0 1.247.377 2.277 1.19 3.011l.004.004c.812.718 1.992 1.031 3.444 1.031.56 0 1.129-.078 1.706-.233l.008-.002a5.213 5.213 0 0 0 1.568-.722Z"/>
    <path fill="#101828" d="M38.19 4.835c-1.139 0-2.296.322-3.465.941l-.147-.383-.123-.322H31.07v12.193h4.428V8.789c.548-.31 1.063-.452 1.55-.452.535 0 .73.152.81.287l.008.012c.14.224.258.731.258 1.645v6.983h4.428V9.847c0-1.51-.29-2.747-.941-3.642-.688-.964-1.892-1.37-3.42-1.37Z"/>
    <path stroke="#000" d="M38.19 4.835c-1.139 0-2.296.322-3.465.941l-.147-.383-.123-.322H31.07v12.193h4.428V8.789c.548-.31 1.063-.452 1.55-.452.535 0 .73.152.81.287l.008.012c.14.224.258.731.258 1.645v6.983h4.428V9.847c0-1.51-.29-2.747-.941-3.642-.688-.964-1.892-1.37-3.42-1.37Z"/>
    <path stroke="#000" stroke-opacity=".2" d="M38.19 4.835c-1.139 0-2.296.322-3.465.941l-.147-.383-.123-.322H31.07v12.193h4.428V8.789c.548-.31 1.063-.452 1.55-.452.535 0 .73.152.81.287l.008.012c.14.224.258.731.258 1.645v6.983h4.428V9.847c0-1.51-.29-2.747-.941-3.642-.688-.964-1.892-1.37-3.42-1.37Z"/>
    <path fill="#101828" d="M23.093 13.536c-.227-.257-.407-.656-.504-1.238h6.726l.108-.355a6.459 6.459 0 0 0 .278-1.879v-.004c-.014-1.596-.446-2.898-1.363-3.831-.91-.955-2.215-1.394-3.827-1.394-2.01 0-3.619.56-4.739 1.754-1.103 1.176-1.633 2.727-1.633 4.598 0 1.18.223 2.254.68 3.21l.004.009c.479.958 1.206 1.719 2.166 2.277l.005.003c.973.552 2.154.814 3.517.814.927 0 1.768-.131 2.517-.405.745-.272 1.482-.71 2.212-1.303l.293-.237-.148-.348-.926-2.167-.234-.546-.498.323c-.653.422-1.224.735-1.714.943a3.872 3.872 0 0 1-1.482.277c-.726 0-1.17-.197-1.438-.5Zm2.002-5.156.008.008c.132.132.239.342.275.683h-2.552a1.75 1.75 0 0 1 .415-.607c.253-.23.595-.363 1.073-.363.381 0 .62.11.781.279Z"/>
    <path stroke="#000" d="M23.093 13.536c-.227-.257-.407-.656-.504-1.238h6.726l.108-.355a6.459 6.459 0 0 0 .278-1.879v-.004c-.014-1.596-.446-2.898-1.363-3.831-.91-.955-2.215-1.394-3.827-1.394-2.01 0-3.619.56-4.739 1.754-1.103 1.176-1.633 2.727-1.633 4.598 0 1.18.223 2.254.68 3.21l.004.009c.479.958 1.206 1.719 2.166 2.277l.005.003c.973.552 2.154.814 3.517.814.927 0 1.768-.131 2.517-.405.745-.272 1.482-.71 2.212-1.303l.293-.237-.148-.348-.926-2.167-.234-.546-.498.323c-.653.422-1.224.735-1.714.943a3.872 3.872 0 0 1-1.482.277c-.726 0-1.17-.197-1.438-.5Zm2.002-5.156.008.008c.132.132.239.342.275.683h-2.552a1.75 1.75 0 0 1 .415-.607c.253-.23.595-.363 1.073-.363.381 0 .62.11.781.279Z"/>
    <path stroke="#000" stroke-opacity=".2" d="M23.093 13.536c-.227-.257-.407-.656-.504-1.238h6.726l.108-.355a6.459 6.459 0 0 0 .278-1.879v-.004c-.014-1.596-.446-2.898-1.363-3.831-.91-.955-2.215-1.394-3.827-1.394-2.01 0-3.619.56-4.739 1.754-1.103 1.176-1.633 2.727-1.633 4.598 0 1.18.223 2.254.68 3.21l.004.009c.479.958 1.206 1.719 2.166 2.277l.005.003c.973.552 2.154.814 3.517.814.927 0 1.768-.131 2.517-.405.745-.272 1.482-.71 2.212-1.303l.293-.237-.148-.348-.926-2.167-.234-.546-.498.323c-.653.422-1.224.735-1.714.943a3.872 3.872 0 0 1-1.482.277c-.726 0-1.17-.197-1.438-.5Zm2.002-5.156.008.008c.132.132.239.342.275.683h-2.552a1.75 1.75 0 0 1 .415-.607c.253-.23.595-.363 1.073-.363.381 0 .62.11.781.279Z"/>
    <path fill="#101828" d="M18.068 16.489 14.6 11.225c.513-.333.922-.77 1.217-1.31.383-.7.559-1.546.559-2.511 0-1.502-.48-2.693-1.523-3.456-1.01-.753-2.542-1.083-4.494-1.083H4.5v14.399H9.047v-4.926h1.116l2.966 4.693.147.233h5.302l-.51-.775Zm-6.549-7.917-.008.008c-.163.156-.503.294-1.151.294H9.047V6.328h1.313c.668 0 1.017.134 1.18.283.153.14.29.425.29.99 0 .523-.136.81-.31.971Z"/>
    <path stroke="#000" d="M18.068 16.489 14.6 11.225c.513-.333.922-.77 1.217-1.31.383-.7.559-1.546.559-2.511 0-1.502-.48-2.693-1.523-3.456-1.01-.753-2.542-1.083-4.494-1.083H4.5v14.399H9.047v-4.926h1.116l2.966 4.693.147.233h5.302l-.51-.775Zm-6.549-7.917-.008.008c-.163.156-.503.294-1.151.294H9.047V6.328h1.313c.668 0 1.017.134 1.18.283.153.14.29.425.29.99 0 .523-.136.81-.31.971Z"/>
    <path stroke="#000" stroke-opacity=".2" d="M18.068 16.489 14.6 11.225c.513-.333.922-.77 1.217-1.31.383-.7.559-1.546.559-2.511 0-1.502-.48-2.693-1.523-3.456-1.01-.753-2.542-1.083-4.494-1.083H4.5v14.399H9.047v-4.926h1.116l2.966 4.693.147.233h5.302l-.51-.775Zm-6.549-7.917-.008.008c-.163.156-.503.294-1.151.294H9.047V6.328h1.313c.668 0 1.017.134 1.18.283.153.14.29.425.29.99 0 .523-.136.81-.31.971Z"/>
  </g>
  <defs>
    <filter id="a" width="111.071" height="26" x="0" y="0" color-interpolation-filters="sRGB" filterUnits="userSpaceOnUse">
      <feFlood flood-opacity="0" result="BackgroundImageFix"/>
      <feColorMatrix in="SourceAlpha" result="hardAlpha" values="0 0 0 0 0 0 0 0 0 0 0 0 0 0 0 0 0 0 127 0"/>
      <feOffset dy="4"/>
      <feGaussianBlur stdDeviation="2"/>
      <feComposite in2="hardAlpha" operator="out"/>
      <feColorMatrix values="0 0 0 0 0 0 0 0 0 0 0 0 0 0 0 0 0 0 0.25 0"/>
      <feBlend in2="BackgroundImageFix" result="effect1_dropShadow_3004_329"/>
      <feBlend in="SourceGraphic" in2="effect1_dropShadow_3004_329" result="shape"/>
    </filter>
  </defs>
</svg>
