<svg xmlns="http://www.w3.org/2000/svg" aria-hidden="true" style="position:absolute;width:0;height:0;overflow:hidden">
  <defs>
    <symbol id="icon-Logologo-1" viewBox="0 0 208 32">
      <path fill="#3470ff" d="M202.142 15.29c-1.366 0-2.614.08-3.744.238-1.38.211-2.614.54-3.791.986l.127-.042v15.054h-6.858V9.144h5.084l1.024 2.64c1.366-1.102 2.706-1.89 4.02-2.364a11.884 11.884 0 0 1 4.083-.708h.057-.003v6.58zm-17.544 16c-.84.184-1.59.316-2.248.394-.63.08-1.38.12-2.246.12-2.52 0-4.178-.816-4.966-2.444a13.884 13.884 0 0 1-3.216 1.819l-.094.033a9.924 9.924 0 0 1-3.514.631l-.118-.001h.006l-.106.001a6.701 6.701 0 0 1-3.123-.767l.037.018a5.687 5.687 0 0 1-2.192-1.987l-.014-.023a5.06 5.06 0 0 1-.788-2.725v-.037.002c0-1.68.42-3.008 1.26-3.98.868-.998 2.024-1.786 3.468-2.364 1.446-.604 3.64-1.326 6.582-2.168l1.182-.354V17.3c0-2.416-1.104-3.626-3.31-3.626-1.078 0-2.234.238-3.468.71-1.234.474-2.654 1.236-4.256 2.286l-1.3-4.73a26.68 26.68 0 0 1 5.244-2.349l.195-.055c1.736-.55 3.732-.866 5.802-.866h.116-.006c2.52 0 4.452.684 5.792 2.05 1.366 1.366 2.05 3.704 2.05 7.014v7.488c0 .578.118.998.354 1.26.236.238.618.356 1.144.356.5 0 .998-.066 1.496-.198l.236 4.65zm-15.726-5.872c0 .526.132.908.394 1.144.29.236.736.354 1.34.354 1.104 0 2.404-.472 3.902-1.42V21.32l-.59.198c-1.972.708-3.312 1.34-4.02 1.89-.684.526-1.026 1.196-1.026 2.01zM150.364 32c-3.258 0-6.016-.63-8.276-1.892-2.26-1.286-3.954-2.98-5.084-5.084-1.043-1.978-1.655-4.323-1.655-6.81l.001-.132v.007c0-2.47.578-4.754 1.734-6.856 1.18-2.102 2.93-3.784 5.24-5.044 2.312-1.262 5.098-1.892 8.356-1.892 3.048 0 5.728.59 8.04 1.772l-1.42 4.966a15.177 15.177 0 0 0-2.923-1.153l-.111-.027c-1.05-.318-2.246-.474-3.586-.474-1.708 0-3.192.394-4.454 1.18a7.547 7.547 0 0 0-2.816 3.11l-.02.044c-.632 1.314-.946 2.786-.946 4.414 0 2.574.682 4.69 2.048 6.344 1.366 1.63 3.324 2.444 5.872 2.444 2.18 0 4.532-.54 7.054-1.616l1.34 4.848c-1.076.552-2.364 1-3.86 1.34-1.5.34-3.01.512-4.534.512z" style="fill:var(--color1, #3470ff)"/>
      <path fill="#101828" d="M123.566 0h6.858v31.528h-6.858V0zm-3.278 31.29c-.84.184-1.59.316-2.246.394-.632.08-1.38.12-2.246.12-2.524 0-4.18-.816-4.966-2.444a13.884 13.884 0 0 1-3.216 1.819l-.094.033a9.924 9.924 0 0 1-3.514.631l-.118-.001h.006l-.106.001a6.701 6.701 0 0 1-3.123-.767l.037.018a5.696 5.696 0 0 1-2.195-1.987l-.013-.023a5.057 5.057 0 0 1-.788-2.725v-.037.002c0-1.68.42-3.008 1.26-3.98.868-.998 2.024-1.786 3.47-2.364 1.444-.604 3.64-1.326 6.58-2.168l1.184-.354V17.3c0-2.416-1.104-3.626-3.312-3.626-1.076 0-2.232.238-3.468.71-1.234.474-2.652 1.236-4.256 2.286l-1.3-4.73a26.667 26.667 0 0 1 5.246-2.349l.195-.055c1.736-.55 3.732-.866 5.802-.866h.114-.006c2.522 0 4.454.684 5.794 2.05 1.366 1.366 2.048 3.704 2.048 7.014v7.488c0 .578.12.998.356 1.26.236.238.616.356 1.14.356.5 0 1-.066 1.5-.198l.236 4.65zm-15.724-5.872c0 .526.132.908.394 1.144.288.236.736.354 1.34.354 1.104 0 2.404-.472 3.9-1.42V21.32l-.59.198c-1.97.708-3.31 1.34-4.02 1.89-.682.526-1.024 1.196-1.024 2.01zm-9.316 4.65a9.275 9.275 0 0 1-2.772 1.284l-.066.016c-.943.27-2.028.429-3.148.436h-.004c-2.784 0-4.86-.606-6.226-1.814-1.366-1.234-2.05-2.994-2.05-5.28V13.99h-3.35v-2.876l4.216-1.696L83.74 3.39h4.1v5.75h6.304v4.848H87.84v9.064c0 1.392.222 2.378.67 2.956.446.578 1.116.866 2.01.866 1.156 0 2.376-.34 3.664-1.024l1.064 4.216zM66.38 8.67c2.916 0 4.926.774 6.03 2.326 1.13 1.55 1.694 3.782 1.694 6.7v13.832h-6.856V18.56c0-1.84-.224-3.114-.67-3.824-.42-.708-1.248-1.064-2.484-1.064-1.34 0-2.706.448-4.098 1.34v16.514H53.14V9.14h5.082l.71 1.854c2.574-1.552 5.058-2.326 7.448-2.326zM34.056 21.596c.132 1.866.592 3.244 1.38 4.138s1.996 1.34 3.626 1.34h.091a8.719 8.719 0 0 0 3.318-.652l-.058.021c1.05-.448 2.246-1.104 3.586-1.972l1.852 4.336c-1.392 1.13-2.772 1.944-4.14 2.444-1.364.5-2.928.748-4.688.748-2.6 0-4.78-.5-6.54-1.498-1.762-1.024-3.076-2.404-3.942-4.138-.84-1.76-1.26-3.756-1.26-5.99 0-3.546.996-6.384 2.994-8.512 1.996-2.128 4.912-3.192 8.748-3.192 3.048 0 5.36.828 6.936 2.482 1.602 1.63 2.418 3.954 2.444 6.976 0 1.182-.172 2.34-.512 3.468H34.057zm7.686-4.454c.026-.156.04-.366.04-.63-.028-1.076-.316-1.892-.868-2.444-.552-.578-1.314-.866-2.286-.866-2.312 0-3.756 1.314-4.334 3.94h7.448zm-30.866 4.534H7.094v9.852H0v-26.8h10.72c3.836 0 6.634.658 8.394 1.972 1.76 1.286 2.64 3.322 2.64 6.108 0 3.626-1.328 6.056-3.98 7.29l7.526 11.43h-8.196l-6.228-9.852zm-3.782-4.93h3.626c1.392 0 2.39-.288 2.994-.866.63-.58.946-1.472.946-2.68 0-1.26-.302-2.168-.906-2.72-.604-.55-1.616-.826-3.034-.826H7.094v7.092z" style="fill:var(--color2, #101828)"/>
    </symbol>
    <symbol id="icon-check-down" viewBox="0 0 32 32">
      <path d="M2.294 8.294a.991.991 0 0 1 .708-.293 1.002 1.002 0 0 1 .708.293l11.292 11.294L26.294 8.294a.991.991 0 0 1 .708-.293 1.006 1.006 0 0 1 .925.618 1.006 1.006 0 0 1-.217 1.091l-12 12a.991.991 0 0 1-.708.293 1.002 1.002 0 0 1-.708-.293l-12-12a.991.991 0 0 1-.293-.708 1.002 1.002 0 0 1 .293-.708z"/>
    </symbol>
    <symbol id="icon-check-active" viewBox="0 0 32 32">
      <path d="M14.293 8.294a.991.991 0 0 1 .708-.293 1.002 1.002 0 0 1 .708.293l12 12a1 1 0 0 1-.708 1.709 1 1 0 0 1-.708-.293L15.001 10.416 3.709 21.71A1 1 0 0 1 2 21.002a1 1 0 0 1 .293-.708l12-12z"/>
    </symbol>
    <symbol id="icon-calendar" viewBox="0 0 32 32">
      <path d="M7 0a.997.997 0 0 1 1 1v1h16V1a.997.997 0 0 1 1-1 .997.997 0 0 1 1 1v1h2a4.003 4.003 0 0 1 4 4v22a4.003 4.003 0 0 1-4 4H4a4.003 4.003 0 0 1-4-4V6a4.003 4.003 0 0 1 4-4h2V1a.997.997 0 0 1 1-1zM4 4a2 2 0 0 0-2 2v22a2 2 0 0 0 2 2h24a2 2 0 0 0 2-2V6a2 2 0 0 0-2-2H4z"/>
      <path d="M5 8a.997.997 0 0 1 1-1h20a.997.997 0 0 1 1 1v2a.997.997 0 0 1-1 1H6a.997.997 0 0 1-1-1V8zm17 7a.997.997 0 0 1 1-1h2a.997.997 0 0 1 1 1v2a.997.997 0 0 1-1 1h-2a.997.997 0 0 1-1-1v-2zm-6 0a.997.997 0 0 1 1-1h2a.997.997 0 0 1 1 1v2a.997.997 0 0 1-1 1h-2a.997.997 0 0 1-1-1v-2zM6 21a.997.997 0 0 1 1-1h2a.997.997 0 0 1 1 1v2a.997.997 0 0 1-1 1H7a.997.997 0 0 1-1-1v-2zm6 0a.997.997 0 0 1 1-1h2a.997.997 0 0 1 1 1v2a.997.997 0 0 1-1 1h-2a.997.997 0 0 1-1-1v-2z"/>
    </symbol>
    <symbol id="icon-gear" viewBox="0 0 32 32">
      <path d="M16 9.508a6.49 6.49 0 1 0 6.492 6.49 6.495 6.495 0 0 0-1.901-4.591A6.495 6.495 0 0 0 16 9.506zM11.508 16A4.489 4.489 0 0 1 16 11.508 4.489 4.489 0 0 1 20.492 16 4.489 4.489 0 0 1 16 20.492 4.489 4.489 0 0 1 11.508 16z"/>
      <path d="M19.592 2.686c-1.054-3.58-6.13-3.58-7.184 0l-.188.638a1.754 1.754 0 0 1-1.006 1.12 1.756 1.756 0 0 1-1.504-.079l-.584-.32c-3.28-1.784-6.866 1.804-5.08 5.082l.318.584a1.746 1.746 0 0 1-1.041 2.51l-.638.188c-3.58 1.054-3.58 6.13 0 7.184l.638.188a1.754 1.754 0 0 1 1.12 1.006 1.756 1.756 0 0 1-.079 1.504l-.32.584c-1.784 3.28 1.802 6.868 5.082 5.08l.584-.318a1.746 1.746 0 0 1 2.51 1.04l.188.638c1.054 3.58 6.13 3.58 7.184 0l.188-.638a1.754 1.754 0 0 1 1.006-1.12 1.74 1.74 0 0 1 1.504.08l.584.32c3.28 1.786 6.868-1.804 5.08-5.082l-.318-.584a1.746 1.746 0 0 1 1.04-2.51l.638-.188c3.58-1.054 3.58-6.13 0-7.184l-.638-.188a1.754 1.754 0 0 1-1.12-1.006 1.74 1.74 0 0 1 .08-1.504l.32-.584c1.786-3.28-1.804-6.866-5.082-5.08l-.584.318a1.746 1.746 0 0 1-2.51-1.041l-.188-.638zm-5.266.566c.492-1.67 2.856-1.67 3.348 0l.188.638a3.748 3.748 0 0 0 5.385 2.23l.582-.32c1.528-.83 3.2.84 2.368 2.37l-.318.584a3.74 3.74 0 0 0-.17 3.225 3.75 3.75 0 0 0 2.403 2.159l.636.188c1.67.492 1.67 2.856 0 3.348l-.638.188a3.748 3.748 0 0 0-2.23 5.385l.32.582c.83 1.528-.84 3.2-2.37 2.368l-.582-.318a3.76 3.76 0 0 0-3.227-.171 3.746 3.746 0 0 0-2.159 2.403l-.188.636c-.492 1.67-2.856 1.67-3.348 0l-.188-.638a3.737 3.737 0 0 0-2.16-2.401 3.752 3.752 0 0 0-3.225.171l-.584.32c-1.528.83-3.2-.84-2.368-2.37l.318-.582c.268-.491.423-1.036.452-1.594s-.066-1.116-.279-1.633a3.745 3.745 0 0 0-2.404-2.161l-.638-.188c-1.67-.492-1.67-2.856 0-3.348l.638-.188a3.742 3.742 0 0 0 2.229-5.382l-.32-.584c-.83-1.528.84-3.2 2.37-2.368l.584.318a3.756 3.756 0 0 0 3.225.171 3.748 3.748 0 0 0 2.16-2.401l.188-.638z"/>
    </symbol>
    <symbol id="icon-Location" viewBox="0 0 32 32">
      <path d="M23.061 16.762c-.982 1.991-2.314 3.975-3.675 5.756a60.032 60.032 0 0 1-4.136 4.819 59.83 59.83 0 0 1-4.136-4.819c-1.361-1.781-2.692-3.765-3.675-5.756-.994-2.012-1.564-3.896-1.564-5.512a9.376 9.376 0 0 1 18.75 0c0 1.616-.572 3.501-1.564 5.512zM15.25 30S26.5 19.339 26.5 11.25a11.249 11.249 0 1 0-22.5 0C4 19.339 15.25 30 15.25 30z"/>
      <path d="M15.25 15a3.752 3.752 0 0 1-3.75-3.75 3.752 3.752 0 0 1 3.75-3.75A3.752 3.752 0 0 1 19 11.25 3.752 3.752 0 0 1 15.25 15zm0 1.875a5.63 5.63 0 0 0 5.625-5.625 5.63 5.63 0 0 0-5.625-5.625 5.63 5.63 0 0 0-5.625 5.625 5.63 5.63 0 0 0 5.625 5.625z"/>
    </symbol>
    <symbol id="icon-fuel-pump" viewBox="0 0 32 32">
      <path d="M6 5a.997.997 0 0 1 1-1h10a.997.997 0 0 1 1 1v10a.997.997 0 0 1-1 1H7a.997.997 0 0 1-1-1V5z"/>
      <path d="M2 4a4.003 4.003 0 0 1 4-4h12a4.003 4.003 0 0 1 4 4v16a4.003 4.003 0 0 1 4 4v1a.997.997 0 0 0 1 1 .997.997 0 0 0 1-1v-9h-1a.997.997 0 0 1-1-1V8.75a.997.997 0 0 1 1-1h2.99c-.022-.952-.106-1.788-.402-2.444a1.944 1.944 0 0 0-.788-.916C28.432 4.17 27.872 4 27 4a.997.997 0 0 1-1-1 .997.997 0 0 1 1-1c1.128-.003 2.069.221 2.824.672.766.456 1.268 1.102 1.588 1.814.59 1.31.588 2.93.588 4.162v6.35a.988.988 0 0 1-.293.708.991.991 0 0 1-.708.293h-1v9a3.004 3.004 0 0 1-3 3 3.004 3.004 0 0 1-3-3v-1a2 2 0 0 0-2-2v8h1a.997.997 0 0 1 1 1 .997.997 0 0 1-1 1h-22a.997.997 0 0 1-1-1 .997.997 0 0 1 1-1h1v-26zm18 0a2 2 0 0 0-2-2H6a2 2 0 0 0-2 2v26h16V4z"/>
    </symbol>
    <symbol id="icon-car" viewBox="0 0 32 32">
      <path d="M8 18a2 2 0 1 1-4.001-.001A2 2 0 0 1 8 18zm20 0a2 2 0 1 1-4.001-.001A2 2 0 0 1 28 18zm-16-2a2 2 0 0 0 0 4h8a2 2 0 0 0 0-4h-8zM9.724 8.552 7.812 12.38a1.02 1.02 0 0 0 .994 1.461c1.82-.146 4.7-.34 7.194-.34s5.376.194 7.194.34a1.018 1.018 0 0 0 .994-1.461l-1.912-3.826A1.002 1.002 0 0 0 21.382 8H10.618a1.002 1.002 0 0 0-.894.552z"/>
      <path d="M5.04 7.03A5.002 5.002 0 0 1 9.64 4h12.724a5 5 0 0 1 4.596 3.03l1.584 3.696c.15.35.42.638.76.808 1 .5 1.71 1.43 1.93 2.524l.67 3.358c.067.323.099.649.098.98v.826a4.97 4.97 0 0 1-2 3.994V27a.997.997 0 0 1-1 1h-4a.997.997 0 0 1-1-1v-2.676c-2.584.096-5.49.176-8 .176s-5.416-.08-8-.176V27a.997.997 0 0 1-1 1h-4a.997.997 0 0 1-1-1v-3.784a4.97 4.97 0 0 1-2-3.994v-.826c0-.329.033-.657.098-.98l.67-3.36a3.615 3.615 0 0 1 1.928-2.522 1.6 1.6 0 0 0 .762-.808L5.044 7.03H5.04zM9.64 6a3.004 3.004 0 0 0-2.758 1.82l-1.584 3.694a3.602 3.602 0 0 1-1.706 1.808 1.606 1.606 0 0 0-.86 1.128l-.672 3.358c-.039.194-.059.39-.06.588v.826a2.959 2.959 0 0 0 2.816 2.968c3.11.14 7.572.31 11.184.31s8.074-.168 11.184-.31A2.957 2.957 0 0 0 30 19.222v-.826c0-.197-.02-.393-.06-.588l-.67-3.36a1.611 1.611 0 0 0-.86-1.126 3.602 3.602 0 0 1-1.706-1.808L25.12 7.818A3.006 3.006 0 0 0 22.36 6H9.64z"/>
    </symbol>
    <symbol id="icon-check-circle" viewBox="0 0 32 32">
      <path d="M16 30A14.002 14.002 0 0 1 2 16a13.998 13.998 0 1 1 23.899 9.899A13.996 13.996 0 0 1 16 30zm0 2a15.997 15.997 0 0 0 16-16A15.997 15.997 0 0 0 16 0 15.997 15.997 0 0 0 0 16a15.997 15.997 0 0 0 16 16z"/>
      <path d="m21.94 9.94-.04.044-6.946 8.85-4.186-4.188a1.497 1.497 0 0 0-2.083.037 1.5 1.5 0 0 0-.037 2.083l5.292 5.294a1.482 1.482 0 0 0 1.087.438 1.51 1.51 0 0 0 1.071-.478l7.984-9.98a1.502 1.502 0 0 0-1.09-2.535 1.498 1.498 0 0 0-1.052.435z"/>
    </symbol>
    <symbol id="icon-heart" viewBox="0 0 32 32">
      <path fill="#f2f4f7" d="m16 5.496-1.434-1.474C11.2.562 5.028 1.756 2.8 6.106c-1.046 2.046-1.282 5 .628 8.77C5.268 18.506 9.096 22.854 16 27.59c6.904-4.736 10.73-9.084 12.572-12.714 1.91-3.772 1.676-6.724.628-8.77C26.972 1.756 20.8.56 17.434 4.02L16 5.496zM16 30C-14.666 9.736 6.558-6.08 15.648 2.286c.12.111.237.225.352.342a5.94 5.94 0 0 1 .352-.34C25.44-6.084 46.666 9.734 16 30z" style="fill:var(--color3, #f2f4f7)"/>
    </symbol>
    <symbol id="icon-car-renc-favicon" viewBox="0 0 32 32">
      <path fill="#6d4c41" d="M8.667 24.667A.667.667 0 0 0 8 24H6a.667.667 0 0 0-.667.667V28c0 .368.298.667.667.667h2A.667.667 0 0 0 8.667 28v-3.333zm18 0A.667.667 0 0 0 26 24h-2a.667.667 0 0 0-.667.667V28c0 .368.298.667.667.667h2a.667.667 0 0 0 .667-.667v-3.333z" style="fill:var(--color4, #6d4c41)"/>
      <path fill="#e3f2fd" d="M24 20H8s2.239-6 2.667-6.667 1.115-.667 1.333-.667h8c.143 0 .937-.021 1.333.667C21.669 13.917 24 20 24 20z" style="fill:var(--color5, #e3f2fd)"/>
      <path fill="#ff3d00" d="M25.333 19.333 16 18.666l-9.333.667c-.736 0-1.333.597-1.333 1.333v5.333c0 .368.298.667.667.667h20a.667.667 0 0 0 .667-.667v-5.333c0-.736-.597-1.333-1.333-1.333z" style="fill:var(--color6, #ff3d00)"/>
      <path fill="#ff3d00" d="M20 13.333c.226 0 1.389.089 2.097 1.835.142.349 1.331 3.326 1.331 3.327l.335.839H8.237l.335-.841a640.745 640.745 0 0 1 1.325-3.313c.715-1.713 1.791-1.846 2.103-1.846h8zM20.002 12H12c-.219 0-2.222 0-3.333 2.667A736.91 736.91 0 0 0 7.334 18H4.667a.667.667 0 0 0-.667.667V20c0 .368.298.667.667.667h22.667a.667.667 0 0 0 .667-.667v-1.333a.667.667 0 0 0-.667-.667h-2.667s-1.191-2.984-1.333-3.333C22.251 12 20.202 12 20.001 12h.002z" style="fill:var(--color6, #ff3d00)"/>
      <path fill="#37474f" d="M25.333 23.333a.667.667 0 0 1-.667.667H7.333a.667.667 0 0 1-.667-.667v-2c0-.368.298-.667.667-.667h17.333c.368 0 .667.298.667.667v2z" style="fill:var(--color7, #37474f)"/>
      <path fill="#fff176" d="M7.333 22.333a1 1 0 0 0 2 0 1 1 0 0 0-2 0zM22.667 22.333a1 1 0 0 0 2 0 1 1 0 0 0-2 0z" style="fill:var(--color8, #fff176)"/>
      <path fill="#ffa000" d="M22 7.333h-8.667V4.666h3.333v1.333l1.333-1.333h1.333v1.333l1.333-1.333h1.333l1.333.665v1.335z" style="fill:var(--color9, #ffa000)"/>
      <path fill="#ffa000" d="M12 2.667a3.333 3.333 0 1 0 0 6.665 3.333 3.333 0 0 0 0-6.665zm-1.333 4a.667.667 0 1 1 0-1.334.667.667 0 1 1 0 1.334z" style="fill:var(--color9, #ffa000)"/>
      <path fill="#d67c05" d="M16.667 7.333V4.666h-1.615c.177.392.281.851.281 1.333s-.103.941-.289 1.354l.008-.021h1.615z" style="fill:var(--color10, #d67c05)"/>
    </symbol>
  </defs>
</svg>
